<svg class="icon" style="width: 1em; height: 1em;fill: currentColor;overflow: hidden;" viewBox="0 0 1024 1024" version="1.1" xmlns="http://www.w3.org/2000/svg" p-id="854"><path d="M512 85.333333c235.648 0 426.666667 191.018667 426.666667 426.666667s-191.018667 426.666667-426.666667 426.666667S85.333333 747.648 85.333333 512 276.352 85.333333 512 85.333333z m0 554.666667a42.666667 42.666667 0 1 0 0 85.333333 42.666667 42.666667 0 0 0 0-85.333333z m-5.888-340.693333c-32.256 0-60.074667 7.338667-83.541333 22.016-18.773333 12.501333-32.938667 29.141333-42.496 50.133333l-3.84 9.258667c-9.642667 25.856 9.088 53.248 35.84 56.234666l4.778666 0.256c15.488 0 28.288-9.472 34.858667-23.125333l1.962667-4.693333c1.408-3.968 3.157333-7.893333 5.162666-11.818667l3.285334-5.802667c7.850667-13.056 21.461333-20.309333 39.808-21.76l7.125333-0.256c19.584 0 34.474667 4.608 43.733333 13.866667l3.2 3.712c7.338667 9.813333 11.605333 20.608 12.842667 32.426667l0.384 7.168c0 11.008-3.072 20.992-8.362667 29.952l-3.413333 5.248a116.053333 116.053333 0 0 1-10.282667 11.733333l-5.845333 5.845333-20.522667 16.170667c-18.261333 14.336-30.72 27.52-36.352 38.528l-1.792 4.010667c-3.925333 10.581333-6.741333 30.634667-8.32 58.026666l-0.469333 9.429334h77.738667c0-12.245333 1.024-22.4 3.072-29.738667l1.322666-4.010667c2.432-9.813333 7.978667-18.517333 16.512-26.24l5.504-4.522666 20.522667-16.128c17.92-14.165333 31.445333-26.026667 39.466667-35.626667l3.072-4.010667c10.24-15.36 17.152-33.066667 18.773333-53.930666l0.298667-9.130667c-2.688-37.930667-14.165333-65.834667-38.997334-87.210667l-6.485333-5.205333c-26.666667-18.645333-58.197333-28.842667-96.768-30.549333l-11.776-0.256z" p-id="855"></path></svg>