<svg class="icon" style="width: 1em; height: 1em;fill: currentColor;overflow: hidden;" viewBox="0 0 1024 1024" version="1.1" xmlns="http://www.w3.org/2000/svg" p-id="535"><path d="M512 64c30.912 0 56 25.088 56 56v3.968a392.256 392.256 0 0 1 332.032 332.032h3.968a56 56 0 1 1 0 112h-3.968a392.256 392.256 0 0 1-332.032 332.032v3.968a56 56 0 1 1-112 0v-3.968a392.256 392.256 0 0 1-332.032-332.096l-3.968 0.064a56 56 0 1 1 0-112h3.968a392.256 392.256 0 0 1 332.096-332.032l-0.064-3.968C456 89.088 481.088 64 512 64z m0 168a280 280 0 1 0 0 560 280 280 0 0 0 0-560zM512 640a128 128 0 1 0 0-256 128 128 0 0 0 0 256z" p-id="536"></path></svg>