<svg class="icon" style="width: 1em; height: 1em;fill: currentColor;overflow: hidden;" viewBox="0 0 1024 1024" version="1.1" xmlns="http://www.w3.org/2000/svg" p-id="469"><path d="M680 64c30.912 0 56 25.088 56 56h84.032c77.312 0 139.968 62.72 139.968 140.032v560C960 897.28 897.28 960 819.968 960H204.032A139.968 139.968 0 0 1 64 819.968v-560c0-77.312 62.72-139.968 140.032-139.968H288a56 56 0 1 1 112 0h224c0-30.912 25.088-56 56-56zM288 232H203.968a27.968 27.968 0 0 0-27.968 28.032v560c0 15.424 12.544 27.968 28.032 27.968h615.936a27.968 27.968 0 0 0 28.032-28.032v-560a27.968 27.968 0 0 0-28.032-27.968H736V288a56 56 0 1 1-112 0v-56h-224V288a56 56 0 1 1-112 0v-56z m456 168a56 56 0 1 1 0 112h-464a56 56 0 1 1 0-112h464z" p-id="470"></path></svg>