<svg class="icon" style="width: 1em; height: 1em;fill: currentColor;overflow: hidden;" viewBox="0 0 1024 1024" version="1.1" xmlns="http://www.w3.org/2000/svg" p-id="810"><path d="M860.416 64A99.584 99.584 0 0 1 960 163.584v696.832A99.584 99.584 0 0 1 860.416 960H163.584A99.584 99.584 0 0 1 64 860.416V163.584A99.584 99.584 0 0 1 163.584 64h696.832z m9.984 64H153.6a25.6 25.6 0 0 0-25.408 22.656L128 153.6v716.8a25.6 25.6 0 0 0 22.592 25.472L153.6 896l37.44-0.064 476.096-476.032L896 648.832V153.6a25.6 25.6 0 0 0-22.592-25.472L870.4 128z m-203.328 382.4l-385.536 385.536L870.4 896a25.6 25.6 0 0 0 25.472-22.592L896 870.4v-131.072l-228.928-228.928zM384 256a128 128 0 1 1 0 256 128 128 0 0 1 0-256z m0 64a64 64 0 1 0 0 128 64 64 0 0 0 0-128z" p-id="811"></path></svg>